<svg xmlns="http://www.w3.org/2000/svg" width="380" height="380" viewBox="0 0 380 380" fill="none"><metadata><rdf:RDF xmlns:rdf="http://www.w3.org/1999/02/22-rdf-syntax-ns#" xmlns:dc="http://purl.org/dc/elements/1.1/"><rdf:Description><dc:creator>RealFaviconGenerator</dc:creator><dc:source>https://realfavicongenerator.net</dc:source></rdf:Description></rdf:RDF></metadata><rect width="380" height="380" fill="url(#paint0_linear_711_5895)"></rect><rect width="380" height="380" fill="url(#paint1_linear_711_5895)"></rect><path d="M85.7079 152.762L100.458 152.776L100.332 154.934C101.824 154.949 105.292 154.422 106.458 155.157C107.026 155.515 106.83 156.205 107.027 156.719C107.273 157.359 112.048 156.877 113.105 157.26C113.481 157.886 112.793 157.785 113.04 158.489C113.846 159.112 116.126 158.924 117.238 158.901C117.204 160.332 117.292 161.267 117.092 162.728C117.781 162.738 119.078 162.709 119.686 162.786C121.201 162.978 120.431 163.581 121.113 164.385C121.799 164.69 123.771 164.677 124.687 164.729C124.631 165.91 124.869 167.462 125.015 168.669L126.596 169.257C126.561 170.303 126.917 172.797 126.572 173.651C125.579 176.106 121.431 178.208 119.66 180.436C118.621 181.743 118.193 183.195 117.409 184.381C117.004 184.994 115.139 186.346 114.434 187.215C113.646 188.188 112.537 190.913 112.027 191.47C110.378 193.27 103.358 199.575 101.631 200.517L101.301 200.39C99.6227 198.165 100.667 178.431 100.097 173.656C98.9781 172.814 98.6939 172.223 97.9804 171.078C94.0866 170.773 90.1652 171.05 86.2797 171.09C86.0702 173.111 85.8771 172.984 83.7972 173.161C83.3873 180.39 83.6168 189.105 83.6187 196.419C83.6215 201.31 83.8002 206.611 83.6759 211.44C84.4515 211.552 85.2254 211.676 85.997 211.809C86.0711 212.539 86.1039 213.46 86.1508 214.205C84.3015 217.561 80.7292 220.678 77.5163 223.068C76.1411 223.896 74.5138 224.508 73.1939 225.4C71.7859 226.352 70.6061 229.038 68.505 228.439C67.9783 228.1 67.7595 227.43 67.5054 226.868C62.1403 226.14 60.9877 223.664 57.3241 220.31C55.2077 218.373 54.4681 217.004 54.0276 214.277C50.3635 212.398 49.5265 211.133 49.7855 207.63C49.9089 205.96 48.8981 205.744 47.6924 205.352C47.3971 205.256 47.3039 203.706 47.2726 203.43C47.2271 200.985 46.6345 182.576 47.6264 181.501C48.3514 181.165 49.3059 181.2 50.1344 181.167C50.0699 180.019 50.1563 178.535 49.984 177.421C49.4994 174.287 51.9361 174.827 54.4976 174.869C54.5129 174.199 54.5256 173.437 54.5096 172.775C54.4401 169.913 53.7298 168.698 57.383 168.701C58.7135 165.793 61.3138 163.326 64.6935 162.536C64.7747 161.134 64.7982 160.507 65.1776 159.155C66.9964 159.033 68.326 159.118 70.2162 158.854C71.4137 155.801 73.0138 157.532 75.8095 156.87C76.3744 156.381 76.1849 156.106 76.5839 155.284C77.311 154.721 81.0666 154.94 82.2677 154.919C82.3729 154.205 82.5761 153.627 82.7953 152.941C83.5135 152.845 84.9448 152.803 85.7079 152.762Z" fill="white"></path><path d="M221.72 156.783C223.709 156.594 228.981 156.735 231.239 156.711C238.192 156.654 245.145 156.658 252.098 156.721C255.95 156.749 260.279 156.882 264.066 156.757L263.964 174.197C263.959 176.5 264.188 183.244 263.635 184.982C262.358 185.473 251.248 185.257 249.136 185.216C249.301 188.562 249.613 195.547 249.034 198.641C253.576 198.744 259.535 198.672 264.113 198.645C263.922 204.317 264.04 210.148 264.004 215.847C264.03 219.555 263.999 223.263 263.913 226.97C260.404 227.168 254.843 226.975 251.111 227.014C240.294 227.124 229.475 227.12 218.657 227.001C218.412 224.948 218.525 220.834 218.525 218.687L218.527 203.364L218.525 156.868C219.591 156.865 220.656 156.837 221.72 156.783ZM233.551 184.888C238.376 184.942 243.868 185.045 248.663 184.784C249.166 181.086 248.401 174.835 248.764 170.919C245.919 171.064 242.679 170.999 239.807 171.005C238.236 171.008 235.119 171.076 233.643 170.939C233.761 174.835 233.626 178.75 233.648 182.648C233.652 183.402 233.633 184.137 233.551 184.888ZM233.563 212.83C235.609 212.659 238.75 212.752 240.881 212.778C243.402 212.81 246.193 212.735 248.683 212.813C248.975 212.082 248.797 201.087 248.95 199.074C244.3 199.115 238.147 199.244 233.596 199.013C233.792 202.904 233.612 206.867 233.652 210.767C233.659 211.464 233.641 212.135 233.563 212.83Z" fill="white"></path><path d="M158.601 156.744C159.149 156.838 162.144 156.755 162.88 156.749L172.41 156.703C182.904 156.657 193.45 156.828 203.896 156.707L203.891 185.452C201.356 185.192 198.288 185.3 195.7 185.27C193.649 185.246 191.279 185.148 189.268 185.226C188.853 188.952 189.546 194.542 189.084 198.735C193.484 198.654 199.865 198.957 203.939 198.583C203.826 201.737 204.097 226.22 203.571 226.935C202.131 227.118 199.455 226.993 197.911 226.989C194.987 226.982 192.062 227.043 189.141 227.172L188.848 226.965C188.604 226.439 188.684 201.209 188.856 199.038C184.113 199.164 178.065 199.18 173.34 199.01C173.602 200.929 173.453 206.253 173.449 208.364L173.417 226.95C170.412 227.282 162.078 227.034 158.524 227.015L158.419 179.701C158.42 172.756 158.116 163.543 158.601 156.744ZM173.39 170.954C173.462 173.796 173.485 176.638 173.46 179.481C173.46 180.978 173.533 183.419 173.307 184.859C178.264 184.956 183.806 185.052 188.741 184.703C188.875 181.512 188.667 178.096 188.714 174.888C188.729 173.699 188.604 172.097 188.719 170.956C185.44 171.004 182.161 171.035 178.882 171.048C177.477 171.055 174.698 171.126 173.39 170.954Z" fill="white"></path><path d="M136.206 132.98C140.242 132.682 144.842 132.947 148.921 133.108L149.447 134.488L151.049 135.432C151.253 136.636 151.268 137.1 151.238 138.322C151.932 138.453 152.879 138.751 153.577 138.948C153.736 141.614 153.923 145.7 153.446 148.249C152.848 148.381 152.049 148.488 151.429 148.588C151.271 150.231 151.569 152.745 151.092 154.199C151.016 154.429 150.023 154.591 149.687 154.658C148.721 155.626 149.401 156.776 149.084 158.046C148.878 158.869 148.588 158.706 148.015 159.132C147.028 159.865 147.031 161.566 146.905 162.68C146.29 162.794 145.489 162.887 144.855 162.979C144.602 164.222 144.943 165.865 144.271 166.704C143.466 166.887 144.071 166.541 143.177 166.655C142.442 167.432 142.495 169.412 142.384 170.544C141.826 170.669 141.552 170.743 141.018 170.936C140.092 171.737 140.429 173.108 140.283 174.572C139.617 174.781 138.875 175.101 138.223 175.364C137.51 177.133 137.007 176.229 135.883 177.438C135.437 177.9 135.751 180.03 135.377 180.406C134.189 181.599 132.591 182.899 131.389 184.105L130.931 186.478C130.195 186.956 126.051 190.936 125.456 191.836C124.99 192.539 124.29 194.565 123.387 195.461C121.875 197.261 117.486 200.085 116.429 201.922C114.306 205.612 114.002 206.268 110.386 209.088C107.756 211.14 104.869 214.111 102.612 216.551C100.482 218.854 97.5374 220.857 95.104 222.889C93.5724 224.191 91.2372 225.152 89.7233 226.578C87.1911 228.617 82.5099 233.733 80.0612 235.218C79.902 235.743 79.579 236.401 79.3449 236.918C78.0872 237.12 76.8273 237.309 75.5652 237.485L74.8116 238.923C73.3921 239.286 72.3071 239.362 70.8454 239.47C70.8082 240.186 70.7275 240.928 70.6613 241.644C69.93 241.887 69.2345 242.155 68.5173 242.428C66.8185 244.911 66.8472 243.299 64.416 244.522C64.0334 244.714 64.0774 245.578 63.7262 245.898C62.9146 246.638 60.8108 246.52 59.7332 246.535C59.3148 249.11 57.657 248.518 55.1968 248.677L54.8527 250.315C52.8809 250.675 50.293 250.64 48.2422 250.678L48.1485 252.802C45.1169 252.92 38.8445 252.981 35.8953 252.75C34.4788 251.346 32.1808 249.387 31.0387 247.933C29.2164 245.614 29.9264 240.219 30.5285 237.526C31.0514 237.067 31.7551 237.109 31.7931 237.051C33.2884 234.77 30.5786 231.724 34.2758 230.195C34.9361 227.352 34.9735 227.73 36.5075 225.699C36.6871 225.461 37.1199 221.639 37.4799 220.601C39.3933 219.435 39.0567 218.596 40.9042 217.905C41.1009 216.526 41.2873 215.338 41.58 213.975C42.2392 213.802 42.8851 213.602 43.5359 213.405C43.7894 212.146 43.9757 211.253 44.3753 210.034C46.0203 209.003 45.9052 207.828 47.1663 207.426C47.7071 208.226 47.4278 209.519 47.7641 210.631C47.8964 211.068 48.3072 212.434 48.3473 212.722C48.2295 213.31 48.1457 214.119 47.9578 214.643C47.5569 215.762 46.4714 215.441 46.0754 216.584C45.6723 217.749 46.179 218.826 45.7656 220.017C45.289 220.431 44.941 220.304 44.1471 220.342C43.2133 221.19 43.8799 222.341 43.5509 223.507C43.3524 224.21 42.8672 224.009 42.0669 224.517C41.1613 226.09 41.4342 232.473 41.5379 234.508C42.8745 235.532 45.5461 237.429 46.2294 238.758C48.6922 238.777 52.1032 239.445 54.5585 238.759C55.1529 238.593 55.1729 238.247 55.4376 237.695C56.478 236.923 58.9644 237.041 60.3442 237.01C60.5813 236.376 60.8256 235.789 61.0922 235.165C61.2612 235.133 62.781 234.908 62.8493 234.883C65.7931 233.822 69.9681 231.344 72.5037 229.604C74.3487 228.338 76.4166 226.169 78.2704 224.817C79.7303 223.752 81.7369 223.316 82.945 222.331C84.0657 221.418 85.2234 220.005 86.3938 219.085C90.1558 216.126 93.4644 212.803 96.9483 209.577C98.208 208.41 100.335 206.815 101.421 205.676C104.573 202.371 107.806 199.181 111.067 195.967C112.27 194.781 113.685 194.267 114.91 192.977C116.691 191.101 117.605 187.044 118.862 185.376C120.351 183.403 124.06 180.587 125.835 178.635C126.408 178.272 126.848 175.796 127.081 175.603C128.767 174.207 129.233 173.22 129.792 171.304C129.759 171.415 131.497 169.255 131.636 169.051C132.232 168.832 132.992 168.629 133.614 168.446C133.519 166.752 133.862 164.647 134.152 162.976C136.128 162.391 135.895 160.787 136.274 159.033C136.775 158.842 137.199 158.732 137.534 158.341C137.724 157.098 137.907 149.587 137.117 148.742C136.458 148.037 134.335 146.406 133.104 144.774C130.77 144.517 127.248 144.709 124.832 144.805L124.134 146.215C119.471 147.039 114.88 149.043 112.383 152.28C112.005 152.771 105.3 152.755 104.641 152.075C104.645 151.4 104.56 151.643 104.905 151.108C105.823 150.506 107.84 150.608 108.308 150.172C109.614 148.956 110.907 147.587 112.4 146.459C113.304 145.776 114.413 144.984 115.453 144.479C115.984 144.221 116.572 144.289 117.181 143.899C119.529 142.398 121.42 139.981 123.989 138.858C124.31 138.717 125.676 138.564 126.091 138.517C126.596 138.02 127.099 137.522 127.599 137.021C129.931 136.811 130.365 137.002 131.647 135.136C134.248 134.557 135.201 135.663 136.206 132.98Z" fill="white"></path><path d="M308.737 156.6C313.312 156.823 317.915 156.703 322.495 156.739C332.855 156.816 343.217 156.801 353.577 156.693C354.014 158.446 354.447 169.412 353.397 170.548C352.018 171.253 340.93 170.972 338.633 170.931C339 173.673 338.755 181.239 338.759 184.377L338.753 212.507C338.764 217.057 338.597 222.34 338.852 226.805C333.825 226.856 328.798 226.87 323.769 226.847C323.417 224.206 323.498 220.233 323.5 217.512L323.528 203.567L323.524 183.072C323.516 179.138 323.404 174.765 323.559 170.858C319.299 171.099 313.225 170.939 308.827 170.95C308.57 169.112 308.499 158.452 308.737 156.6Z" fill="white"></path><path d="M280.959 158.98C285.086 159.217 292.536 159.046 296.76 158.89C296.777 159.684 296.699 160.531 296.645 161.328C297.579 161.415 298.696 161.382 299.647 161.378L299.564 190.198C299.56 194.428 299.725 199.225 299.572 203.379L297.287 203.53C297.174 205.741 296.48 219.118 297.387 219.897C298.093 219.892 298.328 220.001 298.842 219.71C299.383 217.961 298.656 212.38 299.322 209.528C300.407 209.601 301.041 209.735 302.1 209.95C302.209 211.084 302.385 212.291 302.529 213.429C302.705 213.484 303.192 213.629 303.332 213.703C305.865 215.027 305.257 215.746 308.295 216.332C308.361 219.911 308.384 223.491 308.359 227.071C308.373 228.426 308.705 231.843 307.532 232.704C305.717 233.015 305.436 230.533 303.485 230.392C302.439 230.317 302.194 227.309 301.749 226.972C297.579 223.811 296.824 225.201 296.908 220.195L294.952 220.079C294.803 221.176 294.877 223.227 294.884 224.398C291.086 224.394 286.146 224.499 282.423 224.292C282.384 223.165 282.504 221.349 281.698 220.442C281.494 220.214 280.973 220.186 280.669 220.163C280.509 220.151 280.561 220.181 280.434 220.055C279.756 219.379 280.092 205.448 280.039 203.496L277.908 203.302C277.486 200.523 277.578 197.423 277.58 194.592L277.592 183.589L277.599 171.596C277.602 168.178 277.507 165.171 277.966 161.757C281.941 160.788 279.554 160.949 280.959 158.98ZM281.952 167.711C281.974 169.568 282.106 172.597 281.962 174.359C282.775 174.349 283.961 174.256 284.67 174.541C285.532 175.334 285.225 176.047 285.042 177.107C287.09 177.121 290.153 177.211 292.131 177.075C292.136 176.022 292.178 175.431 292.322 174.386L295.209 174.324C295.022 172.247 295.006 169.723 295.049 167.62C292.479 167.443 292.421 167.327 291.618 164.99C290.224 164.968 286.25 165.035 285.134 164.904C285.397 167.887 284.78 167.461 281.952 167.711Z" fill="white"></path><path d="M134.292 185L134.988 185.248C135.065 185.341 135.159 185.455 135.271 185.591C135.833 191.455 135.278 199.97 135.593 205.581L133.169 205.691C133.05 207.606 132.903 209.518 132.727 211.429C130.778 212.212 131.141 213.687 129.176 214.206L129.037 214.241C128.759 214.748 128.718 216.836 128.668 217.543C128.467 217.617 127.452 217.989 127.357 218.092C124.99 220.651 121.033 223.44 119.354 226.404C118.009 226.562 116.984 226.593 115.578 226.819C113.829 228.985 109.428 230.451 106.648 230.855L106.041 232.683C104.339 232.884 101.587 232.924 99.827 232.974L99.7597 234.922C96.4706 235.119 92.306 235.012 88.9624 234.998C85.4845 234.915 88.4919 231.855 89.495 230.878C90.8783 230.542 91.6967 230.457 93.1292 230.309C93.181 228.757 93.1624 227.964 93.5862 226.458C94.827 226.31 96.2493 226.281 97.5134 226.229C97.3359 221.455 97.655 223.066 101.711 221.134C102.544 220.738 104.66 218.555 105.499 217.916C106.705 216.998 106.142 214.86 107.12 214.129C107.79 213.628 109.687 213.392 110.626 212.721C112.559 211.34 114.519 209.302 116.342 207.832C118.114 206.404 117.783 204.548 118.85 203.476C120.772 201.545 123.788 199.159 125.588 197.137C126.914 195.647 127.318 193.788 129.284 191.971C130.433 190.627 132.209 189.642 133.356 188.341C134.078 187.523 133.398 186.09 134.292 185Z" fill="white"></path><path d="M288.319 137.707C288.818 137.741 289.108 137.84 289.4 138.233C290.17 139.267 290.951 139.838 292.079 140.519C292.324 141.485 292.364 142.183 292.444 143.164L294.415 143.425C294.481 144.85 294.617 145.711 294.514 147.171L296.772 147.47C296.6 149.641 296.932 151.882 296.614 154.043C297.667 154.044 298.615 153.948 299.659 153.856C299.687 154.709 299.619 155.655 299.579 156.514C296.96 156.769 292.126 156.635 289.386 156.633C286.449 156.632 281.291 156.806 278.249 156.37C277.63 156.281 277.943 154.936 278.279 154.447C278.842 154.138 279.801 154.104 280.483 154.034C280.298 152.11 280.591 149.442 281.046 147.567L282.796 146.917C282.984 145.502 283.054 145.069 283.553 143.719C285.576 142.469 285.058 141.769 286.353 139.901C286.866 139.161 287.641 138.33 288.319 137.707Z" fill="white"></path><path d="M276.165 209.737C276.881 209.667 277.104 209.642 277.813 209.725C278.461 210.452 278.272 218.131 278.346 219.681C279.031 219.907 279.739 219.954 280.107 220.489C280.493 221.442 279.944 222.748 279.661 223.799C279.445 223.917 278.531 224.479 278.393 224.468C277.635 226.286 277.604 226.114 275.734 226.678C274.91 227.493 275.061 229.19 274.997 230.377C273.596 230.498 272.706 230.419 272.024 231.708C271.92 232.21 271.92 232.37 271.499 232.729C270.912 233.011 269.994 232.862 269.3 232.813C268.756 229.914 268.351 219.755 269.297 216.633C269.432 216.188 271.127 216.194 271.774 216.179C272.791 214.34 273.889 214.504 274.873 213.101C275.466 212.258 274.486 210.493 276.165 209.737Z" fill="white"></path><path d="M288.307 226.267C289.567 226.229 290.864 226.156 292.121 226.231C292.901 226.278 293.249 227.276 293.666 227.828C294.323 228.699 295.227 229.102 294.978 230.288C294.236 230.79 290.128 230.605 288.952 230.602C287.243 230.621 284.039 230.91 282.65 230.276C281.873 229.293 283.111 228.726 283.925 228.208L284.436 226.406C285.569 226.275 287.133 226.287 288.307 226.267Z" fill="white"></path><path d="M287.978 236.412C288.329 236.456 289.6 236.602 289.652 236.965C289.993 239.311 290.396 242.62 289.678 244.873C288.88 244.948 288.307 245.07 287.646 244.705C287.233 243.143 287.424 238.104 287.978 236.412Z" fill="white"></path><path d="M292.715 232.605C293.313 232.761 294.156 232.783 294.794 232.822C294.596 234.488 295.209 238.144 294.387 239.067C294.005 239.051 292.885 239.067 292.696 238.88C291.768 237.962 292.145 233.381 292.715 232.605Z" fill="white"></path><path d="M283.219 232.7C283.566 232.772 284.091 232.864 284.3 233.133C285.263 234.376 284.811 237.38 284.693 238.905C284.227 238.923 283.205 238.988 283.139 238.398C282.991 237.074 282.67 233.855 283.219 232.7Z" fill="white"></path><path d="M47.1663 207.426C47.9867 207.555 47.8461 207.41 48.2527 207.899C48.5166 209.005 48.0211 209.516 48.3078 210.344L48.5965 210.435L48.6049 211.923C48.5263 212.219 48.4799 212.444 48.3472 212.722C48.3071 212.434 47.8963 211.068 47.7641 210.631C47.4277 209.519 47.707 208.226 47.1663 207.426Z" fill="white"></path><path d="M48.5966 210.435C48.6452 209.89 48.6835 208.98 48.8707 208.497C49.189 209.287 49.4892 211.418 48.6049 211.923L48.5966 210.435Z" fill="white"></path><defs>
<linearGradient id="paint0_linear_711_5895" x1="190" y1="0" x2="190" y2="380" gradientUnits="userSpaceOnUse">
<stop stop-color="#0B101B"></stop>
<stop offset="0.221154" stop-color="#354C81"></stop>
</linearGradient>
<linearGradient id="paint1_linear_711_5895" x1="190" y1="0" x2="190" y2="380" gradientUnits="userSpaceOnUse">
<stop stop-color="#0A0E19"></stop>
<stop offset="0.466346" stop-color="#192238"></stop>
<stop offset="0.697115" stop-color="#3D5A4E"></stop>
<stop offset="0.831731" stop-color="#745D6E"></stop>
<stop offset="1" stop-color="#CF98A4"></stop>
</linearGradient>
</defs></svg>